<?xml version="1.0" encoding="UTF-8" standalone="no"?><!DOCTYPE svg PUBLIC "-//W3C//DTD SVG 1.1//EN" "http://www.w3.org/Graphics/SVG/1.1/DTD/svg11.dtd"><svg width="100%" height="100%" viewBox="0 0 191 256" version="1.1" xmlns="http://www.w3.org/2000/svg" xmlns:xlink="http://www.w3.org/1999/xlink" xml:space="preserve" xmlns:serif="http://www.serif.com/" style="fill-rule:evenodd;clip-rule:evenodd;stroke-linecap:round;stroke-linejoin:round;stroke-miterlimit:1.5;"><rect id="sidebar" x="0.509" y="0.041" width="189.714" height="255.792" style="fill:#f1f1f1;"/><clipPath id="_clip1"><rect x="0.509" y="0.041" width="189.714" height="255.792"/></clipPath><g clip-path="url(#_clip1)"><g><rect id="content-blocker" serif:id="content blocker" x="0.509" y="0.041" width="189.714" height="255.792" style="fill:#fff;"/><g><path d="M143.511,15.347c0,-0.319 -0.259,-0.577 -0.577,-0.577l-111.012,0c-0.319,0 -0.578,0.258 -0.578,0.577l0,27.716c0,0.319 0.259,0.577 0.578,0.577l111.012,0c0.318,0 0.577,-0.258 0.577,-0.577l0,-27.716Z" style="fill:#d54132;"/><text x="52.542px" y="33.731px" style="font-family:'Montserrat-Bold', 'Montserrat';font-weight:700;font-size:12.932px;fill:#fff;">C<tspan x="61.828px " y="33.731px ">O</tspan>MPOSE</text></g><rect x="0.509" y="50.746" width="4.718" height="26.742" style="fill:#d54132;"/><text x="30.905px" y="69.057px" style="font-family:'Montserrat-Medium', 'Montserrat';font-weight:500;font-size:12.932px;fill:#d54132;">Inbo<tspan x="60.52px " y="69.057px ">x</tspan></text><g><circle cx="44.475" cy="214.526" r="14.168" style="fill:#a0c0ff;"/><clipPath id="_clip2"><circle cx="44.475" cy="214.526" r="14.168"/></clipPath><g clip-path="url(#_clip2)"><circle cx="44.475" cy="212.194" r="4.033" style="fill:#406be3;"/><ellipse cx="44.475" cy="225.006" rx="8.136" ry="6.94" style="fill:#406be3;"/></g><circle cx="55.35" cy="226.63" r="4.773" style="fill:#37b200;"/></g><text x="30.905px" y="95.03px" style="font-family:'Montserrat-Medium', 'Montserrat';font-weight:500;font-size:12.932px;">Starr<tspan x="62.382px " y="95.03px ">e</tspan>d</text><text x="31.099px" y="122.445px" style="font-family:'Montserrat-Medium', 'Montserrat';font-weight:500;font-size:12.932px;">Sent Mail</text><text x="30.9px" y="149.59px" style="font-family:'Montserrat-Medium', 'Montserrat';font-weight:500;font-size:12.932px;">Dr<tspan x="46.781px " y="149.59px ">a</tspan>fts</text><text x="30.413px" y="175.446px" style="font-family:'Montserrat-Medium', 'Montserrat';font-weight:500;font-size:12.932px;">Mor<tspan x="56.123px " y="175.446px ">e</tspan></text><text x="62.959px" y="219.158px" style="font-family:'Montserrat-Bold', 'Montserrat';font-weight:700;font-size:12.932px;">UCI</text><path d="M77.903,173.734l4.107,-3.987l-8.213,0l4.106,3.987Z" style="fill:#595959;"/><path d="M98.067,217.236l4.107,-3.987l-8.214,0l4.107,3.987Z" style="fill:#595959;"/><path d="M30.307,191.82l152.339,0" style="fill:none;stroke:#e5e5e5;stroke-width:1px;"/><path d="M30.307,238.951l152.339,0" style="fill:none;stroke:#e5e5e5;stroke-width:1px;"/><path d="M161.401,215.963l11.807,0" style="fill:#757575;stroke:#5c5c5c;stroke-width:1px;"/><path d="M167.304,210.06l0,11.806" style="fill:#757575;stroke:#5c5c5c;stroke-width:1px;"/></g></g></svg>