<?xml version="1.0" encoding="UTF-8" standalone="no"?><!DOCTYPE svg PUBLIC "-//W3C//DTD SVG 1.1//EN" "http://www.w3.org/Graphics/SVG/1.1/DTD/svg11.dtd"><svg width="100%" height="100%" viewBox="0 0 1281 101" version="1.1" xmlns="http://www.w3.org/2000/svg" xmlns:xlink="http://www.w3.org/1999/xlink" xml:space="preserve" xmlns:serif="http://www.serif.com/" style="fill-rule:evenodd;clip-rule:evenodd;stroke-linecap:round;stroke-linejoin:round;stroke-miterlimit:1.5;"><rect id="topper" x="0.509" y="0" width="1280" height="100.041" style="fill:#f1f1f1;"/><clipPath id="_clip1"><rect x="0.509" y="0" width="1280" height="100.041"/></clipPath><g clip-path="url(#_clip1)"><g><rect x="0.509" y="55.856" width="1280" height="44.184" style="fill:#fff;stroke:#e5e5e5;stroke-width:1px;"/><g><text x="29.892px" y="84.16px" style="font-family:'Montserrat-SemiBold', 'Montserrat';font-weight:600;font-size:17px;fill:#d54132;">Gmail</text><path d="M90.473,80.873l4.107,-3.986l-8.214,0l4.107,3.986Z" style="fill:#d54132;"/></g><g transform="matrix(0.226886,0,0,0.226886,-580.884,-0.201389)"><text x="2673.61px" y="158.44px" style="font-family:'Montserrat-SemiBold', 'Montserrat';font-weight:600;font-size:119.003px;fill:#407df8;">G</text><text x="2765.47px" y="158.44px" style="font-family:'Montserrat-SemiBold', 'Montserrat';font-weight:600;font-size:119.003px;fill:#d54132;">o</text><text x="2842.23px" y="158.44px" style="font-family:'Montserrat-SemiBold', 'Montserrat';font-weight:600;font-size:119.003px;fill:#fcbe00;">o</text><text x="2918.99px" y="158.44px" style="font-family:'Montserrat-SemiBold', 'Montserrat';font-weight:600;font-size:119.003px;fill:#407df8;">g</text><text x="3001.58px" y="158.44px" style="font-family:'Montserrat-SemiBold', 'Montserrat';font-weight:600;font-size:119.003px;fill:#35ac4f;">l</text><text x="3035.97px" y="158.44px" style="font-family:'Montserrat-SemiBold', 'Montserrat';font-weight:600;font-size:119.003px;fill:#d54132;">e</text></g><g><rect x="1146.56" y="20.596" width="3.922" height="3.922" style="fill:#6d6d6d;"/><rect x="1146.57" y="25.97" width="3.922" height="3.922" style="fill:#6d6d6d;"/><rect x="1146.57" y="31.386" width="3.922" height="3.922" style="fill:#6d6d6d;"/><rect x="1152.03" y="20.596" width="3.922" height="3.922" style="fill:#6d6d6d;"/><rect x="1152.04" y="25.97" width="3.922" height="3.922" style="fill:#6d6d6d;"/><rect x="1152.04" y="31.386" width="3.922" height="3.922" style="fill:#6d6d6d;"/><rect x="1157.47" y="20.596" width="3.922" height="3.922" style="fill:#6d6d6d;"/><rect x="1157.48" y="25.97" width="3.922" height="3.922" style="fill:#6d6d6d;"/><rect x="1157.48" y="31.386" width="3.922" height="3.922" style="fill:#6d6d6d;"/></g><g><circle cx="1196.07" cy="28.205" r="9.247" style="fill:#6d6d6d;"/><path d="M1196.07,32.439c0,0 3.395,-3.55 3.395,-5.072c0,-1.874 -1.521,-3.395 -3.395,-3.395c-1.874,0 -3.395,1.521 -3.395,3.395c0,1.522 3.395,5.072 3.395,5.072Z" style="fill:#fff;"/><rect x="1192.67" y="26.843" width="6.79" height="4.439" style="fill:#fff;"/><rect x="1191.89" y="30.553" width="8.353" height="0.73" style="fill:#fff;"/></g><g><circle cx="1238.23" cy="28.016" r="15.02" style="fill:#c2005a;"/><text x="1231.51px" y="33.898px" style="font-family:'Montserrat-Medium', 'Montserrat';font-weight:500;font-size:17px;fill:#fff;">U</text></g></g></g></svg>